<?xml version="1.0" standalone="no"?>
<!DOCTYPE svg PUBLIC "-//W3C//DTD SVG 20010904//EN"
 "http://www.w3.org/TR/2001/REC-SVG-20010904/DTD/svg10.dtd">
<svg version="1.0" xmlns="http://www.w3.org/2000/svg"
 width="512.000000pt" height="512.000000pt" viewBox="0 0 512.000000 512.000000"
 preserveAspectRatio="xMidYMid meet">
<metadata>
Created by potrace 1.14, written by Peter Selinger 2001-2017
</metadata>
<g transform="translate(0.000000,512.000000) scale(0.100000,-0.100000)"
fill="#000000" stroke="none">
<path d="M2438 5105 c-2 -2 -45 -6 -97 -9 -51 -3 -103 -8 -115 -11 -11 -2 -38
-7 -60 -10 -85 -12 -246 -49 -351 -81 -591 -179 -1109 -581 -1433 -1113 -123
-204 -214 -411 -276 -632 -30 -107 -43 -167 -71 -324 -21 -120 -28 -521 -12
-655 58 -474 221 -880 505 -1260 96 -129 313 -351 442 -454 351 -280 776 -464
1230 -532 172 -26 575 -26 735 1 179 30 212 37 380 87 111 33 361 133 386 154
8 8 20 14 26 14 15 0 237 134 317 192 445 321 771 764 945 1283 27 81 57 188
67 240 2 11 6 31 9 45 10 47 15 75 21 120 3 25 7 47 9 50 8 13 19 220 19 345
0 131 -9 294 -19 340 -2 11 -7 37 -10 58 -17 124 -73 341 -122 472 -96 259
-243 519 -413 731 -97 121 -315 333 -430 420 -332 250 -679 407 -1070 484 -30
5 -66 12 -80 15 -14 3 -47 7 -75 10 -27 3 -72 8 -100 11 -48 6 -352 13 -357 9z"/>
</g>
</svg>
