<?xml version="1.0" standalone="no"?>
<!DOCTYPE svg PUBLIC "-//W3C//DTD SVG 20010904//EN"
 "http://www.w3.org/TR/2001/REC-SVG-20010904/DTD/svg10.dtd">
<svg version="1.0" xmlns="http://www.w3.org/2000/svg"
 width="512.000000pt" height="512.000000pt" viewBox="0 0 512.000000 512.000000"
 preserveAspectRatio="xMidYMid meet">
<metadata>
Created by potrace 1.14, written by Peter Selinger 2001-2017
</metadata>
<g transform="translate(0.000000,512.000000) scale(0.100000,-0.100000)"
fill="#000000" stroke="none">
<path d="M1576 5108 c5 -7 58 -73 118 -147 61 -74 110 -137 109 -140 -2 -3
-57 -6 -123 -6 l-119 -1 -101 123 -101 123 -102 -122 -102 -123 -200 0 c-186
-1 -203 -2 -241 -22 -23 -12 -54 -37 -69 -55 -62 -74 -59 3 -59 -1223 0 -1251
-6 -1152 70 -1228 70 -70 -80 -65 1907 -64 l1795 0 48 24 c62 30 100 77 116
140 10 38 13 291 12 1144 -1 601 -4 1104 -7 1116 -17 68 -71 126 -143 151 -38
14 -79 18 -189 17 l-140 -1 -26 31 c-15 16 -61 72 -104 123 -42 52 -78 92 -80
90 -1 -2 -47 -57 -102 -124 l-101 -121 -125 1 c-112 0 -125 2 -113 16 82 97
227 282 224 286 -3 2 -187 3 -410 2 l-406 -3 80 -95 c43 -52 99 -120 123 -151
l43 -55 -125 0 -125 1 -25 30 c-14 17 -35 41 -47 55 -12 14 -46 55 -76 93 -29
37 -55 67 -56 67 -1 0 -44 -51 -96 -112 -51 -62 -97 -118 -103 -123 -11 -12
-257 -15 -253 -3 2 4 50 64 108 134 58 70 111 136 118 146 13 17 -2 18 -398
18 -326 0 -410 -3 -404 -12z"/>
<path d="M399 1535 c-82 -256 -227 -706 -305 -949 -30 -93 -53 -175 -50 -183
3 -7 1 -15 -3 -17 -4 -3 -8 -91 -8 -196 l0 -190 2526 2 2526 3 1 185 c0 119
-3 190 -10 199 -9 12 -8 13 3 6 11 -6 13 -4 7 11 -7 16 -36 105 -105 319 -5
17 -42 131 -81 255 -39 124 -75 236 -80 250 -8 23 -142 444 -159 500 l-8 25
-2092 0 -2091 1 -71 -221z"/>
</g>
</svg>
